<?xml version="1.0" encoding="utf-8"?>
<svg id="master-artboard" viewBox="0 0 1400 548.1641845703125" version="1.1" xmlns="http://www.w3.org/2000/svg" x="0px" y="0px" style="enable-background:new 0 0 1400 980;" width="1400px" height="548.1641845703125px"><rect id="ee-background" x="0" y="0" width="1400" height="548.1641845703125" style="fill: white; fill-opacity: 0; pointer-events: none;"/><g transform="matrix(8.386412620544434, 0, 0, 8.386412620544434, -36.46624755859375, -40.27197265625)"><metadata>
Created by potrace 1.15, written by Peter Selinger 2001-2017
</metadata><g transform="translate(0.000000,80.000000) scale(0.100000,-0.100000)" fill="#000000" stroke="none">
<path d="M234 652 c-122 -89 -198 -243 -180 -363 7 -50 52 -129 73 -129 17 0&#10;17 2 -8 50 -54 103 18 317 141 422 22 19 40 38 40 41 0 15 -29 5 -66 -21z" style="fill: rgb(3, 61, 79);"/>
<path d="M520 665 c0 -7 4 -16 9 -19 5 -3 15 -29 21 -57 15 -61 11 -65 -70&#10;-75 -30 -3 -71 -9 -91 -13 -34 -8 -35 -7 -31 21 6 39 -16 37 -50 -6 -18 -23&#10;-39 -36 -65 -41 -50 -9 -73 -22 -73 -42 0 -12 7 -14 35 -10 19 3 35 4 35 3 0&#10;-2 -13 -27 -30 -57 -83 -151 13 -218 143 -100 23 21 38 61 22 61 -2 0 -32 -18&#10;-66 -40 -62 -40 -99 -51 -99 -28 0 16 47 96 85 144 32 38 37 41 117 53 45 6&#10;98 14 116 17 31 5 32 4 26 -23 -23 -98 -68 -183 -133 -252 -38 -41 -32 -52 15&#10;-26 75 40 164 171 164 243 0 37 13 62 31 62 28 0 24 38 -5 50 -16 6 -26 20&#10;-31 42 -4 18 -16 47 -26 65 -21 34 -49 51 -49 28z" style="fill: rgb(3, 61, 79);"/>
<path d="M752 619 c-13 -5 -22 -15 -19 -21 4 -14 40 -15 100 -3 59 12 45 -10&#10;-33 -51 -98 -51 -162 -109 -158 -143 l3 -26 104 0 c109 0 131 9 98 43 -14 13&#10;-26 14 -77 6 -33 -6 -60 -7 -60 -3 0 12 57 56 117 90 64 35 93 58 93 71 0 4&#10;-9 17 -20 28 -15 15 -33 20 -72 19 -29 0 -64 -4 -76 -10z" style="fill: rgb(3, 61, 79);"/>
<path d="M1368 516 c-18 -23 -39 -36 -65 -41 -50 -9 -73 -22 -73 -42 0 -12 7&#10;-14 35 -10 19 3 35 4 35 3 0 -12 -53 -96 -61 -96 -4 0 -24 -14 -44 -31 -20&#10;-18 -38 -29 -41 -26 -3 2 2 22 11 42 14 35 14 40 -1 57 -23 25 -34 23 -74 -15&#10;-111 -103 -141 -118 -100 -53 26 42 23 80 -5 84 -25 3 -105 -54 -105 -75 0&#10;-10 6 -14 20 -10 17 4 19 1 14 -20 -8 -30 12 -69 37 -76 15 -4 72 35 109 73 3&#10;3 13 12 24 20 18 14 18 13 12 -17 -8 -35 7 -73 28 -73 7 0 34 16 59 35 53 41&#10;57 42 57 15 0 -11 8 -28 19 -39 30 -30 88 -12 154 48 l27 25 0 -32 c0 -35 32&#10;-72 62 -72 33 0 98 40 118 73 23 37 25 58 8 103 -24 67 -106 48 -236 -56 -61&#10;-48 -106 -69 -120 -56 -9 9 35 90 79 146 34 43 40 46 109 58 40 7 113 15 162&#10;19 83 6 89 7 86 27 -2 14 -12 22 -28 25 -24 3 -152 -13 -231 -29 -34 -7 -35&#10;-6 -31 22 6 39 -16 37 -50 -6z" style="fill: rgb(3, 61, 79);"/>
</g></g></svg>